<svg width="500" height="500" viewBox="0 0 500 500" fill="none" xmlns="http://www.w3.org/2000/svg">
  <!-- Document Icon -->
  <path
    d="M370 140L370 370C370 380 362 390 350 390L150 390C138 390 130 380 130 370L130 130C130 120 138 110 150 110L340 110C352 110 370 122 370 140Z"
    fill="#3A5A40" stroke="#3A5A40" stroke-width="10" />
  <path d="M340 110L340 140L370 140L340 110Z" fill="#A3B18A" stroke="#A3B18A" stroke-width="5" />

  <!-- Leaf -->
  <path d="M275 230C275 230 240 215 220 235C200 255 220 285 235 295C250 305 280 300 290 275"
    fill="#3A5A40" />
  <path d="M235 295C235 295 200 270 220 235" stroke="#A3B18A" stroke-width="10"
    stroke-linecap="round" />

  <!-- DocuSage text -->
  <text x="140" y="460" font-family="Arial" font-weight="700" font-size="48" fill="#3A5A40">DocuSage</text>
</svg>